<?xml version="1.0" encoding="UTF-8"?>
<!DOCTYPE svg PUBLIC "-//W3C//DTD SVG 1.1//EN" "http://www.w3.org/Graphics/SVG/1.1/DTD/svg11.dtd">
<!-- Creator: CorelDRAW X8 -->
<svg xmlns="http://www.w3.org/2000/svg" xml:space="preserve" width="900px" height="900px" version="1.1" style="shape-rendering:geometricPrecision; text-rendering:geometricPrecision; image-rendering:optimizeQuality; fill-rule:evenodd; clip-rule:evenodd"
viewBox="0 0 900 900"
 xmlns:xlink="http://www.w3.org/1999/xlink">
 <defs>
  <style type="text/css">
   <![CDATA[
    .str4 {stroke:#0048FF;stroke-width:3.99997}
    .str3 {stroke:#00E6FF;stroke-width:3.99997}
    .str1 {stroke:#09FF00;stroke-width:3.99997}
    .str2 {stroke:#EE00FF;stroke-width:3.99997}
    .str0 {stroke:red;stroke-width:3.99997}
    .fil13 {fill:none;fill-rule:nonzero}
    .fil3 {fill:#0022FF}
    .fil1 {fill:#00A2FF}
    .fil5 {fill:#00B7FF}
    .fil8 {fill:lime}
    .fil7 {fill:#00FF44}
    .fil6 {fill:#00FFCC}
    .fil2 {fill:#BF00FF}
    .fil0 {fill:#FBFF00}
    .fil10 {fill:#FF00EE}
    .fil11 {fill:#FF2200}
    .fil4 {fill:#FF2A00}
    .fil9 {fill:#FF7B00}
    .fil12 {fill:#7ACC00;fill-rule:nonzero}
   ]]>
  </style>
 </defs>
 <g id="Layer_x0020_1">
  <metadata id="CorelCorpID_0Corel-Layer"/>
  <circle class="fil0 str0" cx="152" cy="141" r="46"/>
  <circle class="fil1 str1" cx="448" cy="193" r="51"/>
  <circle class="fil2 str0" cx="253" cy="300" r="38"/>
  <circle class="fil3 str0" cx="380" cy="596" r="46"/>
  <circle class="fil0 str0" cx="753" cy="777" r="88"/>
  <circle class="fil4 str0" cx="591" cy="578" r="49"/>
  <circle class="fil5 str0" cx="544" cy="690" r="55"/>
  <circle class="fil6 str2" cx="151" cy="606" r="56"/>
  <circle class="fil0 str0" cx="298" cy="754" r="37"/>
  <circle class="fil7 str2" cx="433" cy="796" r="71"/>
  <circle class="fil8 str2" cx="656" cy="220" r="101"/>
  <circle class="fil9 str0" cx="465" cy="346" r="56"/>
  <circle class="fil10 str1" cx="736" cy="587" r="64"/>
  <circle class="fil11 str3" cx="291" cy="127" r="79"/>
  <circle class="fil0 str0" cx="807" cy="71" r="44"/>
  <circle class="fil0 str1" cx="83" cy="277" r="52"/>
  <circle class="fil0 str0" cx="278" cy="470" r="105"/>
  <path class="fil12" d="M76 506l-17 -2c-12,0 -20,-1 -26,-1 -5,0 -8,0 -10,0 -6,-1 -10,-2 -12,-5 -3,-3 -4,-6 -4,-10 0,-2 1,-4 2,-5 1,-2 4,-4 9,-6 2,-2 4,-4 5,-8 2,-3 3,-11 5,-22 4,-19 6,-41 9,-68 1,-10 0,-16 -1,-20 -1,-3 -3,-6 -8,-9 -5,-3 -8,-6 -7,-11 0,-3 2,-6 5,-8 4,-2 8,-3 13,-3 3,0 7,1 11,1 8,1 16,2 24,3 7,1 19,1 38,3 6,0 11,0 16,1 11,1 20,2 26,5 7,2 13,6 18,10 7,8 11,18 10,30 -1,5 -3,11 -6,16 -3,6 -6,10 -11,13 -3,2 -4,4 -5,6 0,2 2,4 5,5 7,4 13,9 18,16 5,7 7,16 6,27 -1,12 -6,22 -16,32 -13,12 -30,17 -53,15 -4,0 -11,-1 -23,-3 -11,-1 -18,-2 -21,-2zm21 -137l-3 26c0,5 0,8 1,9 1,2 3,3 6,3 6,1 11,-1 14,-4 3,-4 5,-10 6,-18 1,-8 0,-14 -3,-19 -3,-4 -7,-7 -12,-7 -3,-1 -5,0 -7,2 -1,1 -2,4 -2,8zm-7 73l-1 12c-1,11 0,19 1,22 1,4 4,6 9,7 13,1 20,-6 21,-21 2,-19 -4,-29 -19,-30 -3,0 -6,0 -8,2 -1,1 -2,4 -3,8z"/>
  <path id="1" class="fil12" d="M282 397c16,1 29,6 40,15 8,7 14,15 18,24 4,10 6,21 5,31 -1,18 -11,33 -29,45 -17,11 -36,15 -56,13 -21,-2 -36,-9 -48,-21 -11,-12 -16,-27 -14,-45 1,-20 10,-36 26,-47 17,-12 36,-17 58,-15zm-12 28c-4,0 -7,1 -10,3 -2,3 -3,7 -4,11 0,5 0,12 1,21 1,9 3,17 5,24 2,7 6,11 12,11 7,1 12,-4 12,-13 1,-7 1,-15 0,-24 -2,-10 -3,-17 -5,-23 -3,-6 -6,-9 -11,-10z"/>
  <path id="2" class="fil12" d="M430 418l-7 74c0,6 0,10 1,13 1,3 2,5 5,8 3,2 4,4 5,5 1,1 1,3 1,5 -1,11 -15,15 -43,13 -14,-1 -26,-4 -35,-7 -2,-1 -5,-3 -6,-5 -2,-2 -3,-5 -2,-7 0,-3 0,-4 1,-5 1,-2 4,-3 8,-6 3,-2 5,-5 6,-9 2,-4 3,-11 4,-19 0,-3 0,-8 1,-16 0,-8 0,-12 0,-13 0,-4 -2,-7 -7,-9 -5,-3 -7,-6 -6,-11 0,-5 4,-9 11,-11 10,-3 20,-5 31,-6 11,-2 19,-3 25,-2 5,0 7,3 7,8zm-21 -57c8,0 13,2 17,5 4,4 6,7 6,12 -1,7 -4,11 -11,15 -11,5 -24,7 -38,5 -6,0 -11,-2 -15,-4 -4,-4 -6,-8 -6,-14 1,-7 6,-12 17,-15 11,-4 21,-5 30,-4z"/>
  <path id="3" class="fil12" d="M602 471l-2 45c0,4 0,6 1,8 0,1 3,5 7,10 1,1 1,3 1,6 -1,5 -4,9 -11,10 -7,2 -19,2 -36,0 -12,-1 -20,-2 -24,-5 -5,-2 -7,-6 -7,-11 0,-1 1,-2 1,-3 1,-1 3,-3 6,-6 3,-3 6,-15 8,-35 1,-11 0,-20 -2,-26 -2,-4 -6,-7 -12,-8 -5,0 -9,1 -12,5 -2,3 -4,10 -5,19l-2 25c0,5 0,9 0,11 1,2 3,5 6,11 1,2 1,3 1,5 -1,5 -5,9 -12,10 -7,2 -18,2 -32,1 -24,-2 -35,-8 -34,-17 0,-2 0,-4 1,-5 1,-1 3,-2 6,-4 2,-1 4,-3 4,-5 1,-2 2,-7 3,-15 2,-10 3,-20 4,-30 0,-6 0,-10 0,-12 -1,-2 -4,-4 -8,-7 -3,-3 -5,-6 -4,-9 0,-3 2,-6 5,-8 3,-2 9,-4 19,-7 8,-2 16,-3 24,-5 7,-1 13,-2 15,-1 3,0 5,1 7,3 1,2 2,4 2,7 0,0 -1,1 -1,3 0,0 0,1 0,2 0,4 1,6 4,6 3,0 5,-1 7,-4 9,-10 20,-14 33,-13 11,1 20,4 27,11 5,4 8,9 10,15 1,5 2,13 2,23z"/>
  <path id="4" class="fil12" d="M703 392l-5 40c0,4 -1,10 -1,17 -1,9 -1,14 -1,15 0,4 2,6 5,6 2,0 6,-1 12,-4 5,-3 8,-5 8,-6 0,-1 -1,-3 -2,-6 -1,-2 -2,-3 -2,-5 1,-9 13,-13 35,-11 12,1 21,3 27,6 3,1 5,3 7,6 1,2 2,5 2,7 -1,4 -3,7 -7,8 0,0 -3,0 -7,1 -4,0 -9,2 -15,5 -6,4 -9,6 -10,8 0,1 3,7 10,18 6,10 12,19 17,27 4,5 7,9 9,11 2,2 5,5 8,7 6,4 9,8 9,12 -1,5 -3,8 -7,10 -4,2 -9,3 -16,3l-41 -4c-5,0 -9,-3 -12,-7l-18 -28c-5,-8 -8,-12 -9,-14 -1,-1 -2,-2 -3,-2 -1,0 -2,0 -2,2 -1,1 -1,4 -2,8 0,4 0,7 1,9 0,2 2,4 5,7 2,2 3,4 3,8 -1,6 -4,10 -11,12 -6,2 -17,2 -31,1 -17,-1 -28,-3 -33,-5 -2,-1 -5,-3 -7,-6 -1,-3 -2,-5 -2,-8 0,-3 2,-6 6,-8 3,-2 5,-3 6,-4 1,-1 2,-2 3,-5 3,-11 5,-29 7,-54l3 -28c1,-9 1,-15 0,-18 -1,-3 -3,-4 -7,-5 -7,-2 -10,-5 -10,-10 1,-3 2,-6 6,-8 3,-2 8,-4 15,-6 23,-7 40,-9 50,-8 5,0 7,2 7,6z"/>
  <path id="5" class="fil12" d="M846 521c7,0 13,4 18,10 4,5 7,12 6,19 -1,8 -4,14 -10,19 -6,5 -12,7 -20,6 -7,0 -13,-3 -18,-9 -5,-6 -8,-12 -7,-20 1,-8 4,-14 9,-18 6,-6 13,-8 22,-7zm9 -120c8,1 14,4 19,10 6,8 9,18 8,31 -1,8 -4,18 -7,27 -4,10 -9,18 -15,26 -6,8 -11,12 -14,12 -4,-1 -8,-7 -13,-18 -4,-9 -7,-18 -9,-28 -2,-10 -2,-18 -1,-26 0,-10 3,-18 8,-24 6,-7 14,-11 24,-10z"/>
  <path id="6" class="fil13 str4" d="M76 506l-17 -2c-12,0 -20,-1 -26,-1 -5,0 -8,0 -10,0 -6,-1 -10,-2 -12,-5 -3,-3 -4,-6 -4,-10 0,-2 1,-4 2,-5 1,-2 4,-4 9,-6 2,-2 4,-4 5,-8 2,-3 3,-11 5,-22 4,-19 6,-41 9,-68 1,-10 0,-16 -1,-20 -1,-3 -3,-6 -8,-9 -5,-3 -8,-6 -7,-11 0,-3 2,-6 5,-8 4,-2 8,-3 13,-3 3,0 7,1 11,1 8,1 16,2 24,3 7,1 19,1 38,3 6,0 11,0 16,1 11,1 20,2 26,5 7,2 13,6 18,10 7,8 11,18 10,30 -1,5 -3,11 -6,16 -3,6 -6,10 -11,13 -3,2 -4,4 -5,6 0,2 2,4 5,5 7,4 13,9 18,16 5,7 7,16 6,27 -1,12 -6,22 -16,32 -13,12 -30,17 -53,15 -4,0 -11,-1 -23,-3 -11,-1 -18,-2 -21,-2zm21 -137l-3 26c0,5 0,8 1,9 1,2 3,3 6,3 6,1 11,-1 14,-4 3,-4 5,-10 6,-18 1,-8 0,-14 -3,-19 -3,-4 -7,-7 -12,-7 -3,-1 -5,0 -7,2 -1,1 -2,4 -2,8zm-7 73l-1 12c-1,11 0,19 1,22 1,4 4,6 9,7 13,1 20,-6 21,-21 2,-19 -4,-29 -19,-30 -3,0 -6,0 -8,2 -1,1 -2,4 -3,8z"/>
  <path id="7" class="fil13 str4" d="M282 397c16,1 29,6 40,15 8,7 14,15 18,24 4,10 6,21 5,31 -1,18 -11,33 -29,45 -17,11 -36,15 -56,13 -21,-2 -36,-9 -48,-21 -11,-12 -16,-27 -14,-45 1,-20 10,-36 26,-47 17,-12 36,-17 58,-15zm-12 28c-4,0 -7,1 -10,3 -2,3 -3,7 -4,11 0,5 0,12 1,21 1,9 3,17 5,24 2,7 6,11 12,11 7,1 12,-4 12,-13 1,-7 1,-15 0,-24 -2,-10 -3,-17 -5,-23 -3,-6 -6,-9 -11,-10z"/>
  <path id="8" class="fil13 str4" d="M430 418l-7 74c0,6 0,10 1,13 1,3 2,5 5,8 3,2 4,4 5,5 1,1 1,3 1,5 -1,11 -15,15 -43,13 -14,-1 -26,-4 -35,-7 -2,-1 -5,-3 -6,-5 -2,-2 -3,-5 -2,-7 0,-3 0,-4 1,-5 1,-2 4,-3 8,-6 3,-2 5,-5 6,-9 2,-4 3,-11 4,-19 0,-3 0,-8 1,-16 0,-8 0,-12 0,-13 0,-4 -2,-7 -7,-9 -5,-3 -7,-6 -6,-11 0,-5 4,-9 11,-11 10,-3 20,-5 31,-6 11,-2 19,-3 25,-2 5,0 7,3 7,8zm-21 -57c8,0 13,2 17,5 4,4 6,7 6,12 -1,7 -4,11 -11,15 -11,5 -24,7 -38,5 -6,0 -11,-2 -15,-4 -4,-4 -6,-8 -6,-14 1,-7 6,-12 17,-15 11,-4 21,-5 30,-4z"/>
  <path id="9" class="fil13 str4" d="M602 471l-2 45c0,4 0,6 1,8 0,1 3,5 7,10 1,1 1,3 1,6 -1,5 -4,9 -11,10 -7,2 -19,2 -36,0 -12,-1 -20,-2 -24,-5 -5,-2 -7,-6 -7,-11 0,-1 1,-2 1,-3 1,-1 3,-3 6,-6 3,-3 6,-15 8,-35 1,-11 0,-20 -2,-26 -2,-4 -6,-7 -12,-8 -5,0 -9,1 -12,5 -2,3 -4,10 -5,19l-2 25c0,5 0,9 0,11 1,2 3,5 6,11 1,2 1,3 1,5 -1,5 -5,9 -12,10 -7,2 -18,2 -32,1 -24,-2 -35,-8 -34,-17 0,-2 0,-4 1,-5 1,-1 3,-2 6,-4 2,-1 4,-3 4,-5 1,-2 2,-7 3,-15 2,-10 3,-20 4,-30 0,-6 0,-10 0,-12 -1,-2 -4,-4 -8,-7 -3,-3 -5,-6 -4,-9 0,-3 2,-6 5,-8 3,-2 9,-4 19,-7 8,-2 16,-3 24,-5 7,-1 13,-2 15,-1 3,0 5,1 7,3 1,2 2,4 2,7 0,0 -1,1 -1,3 0,0 0,1 0,2 0,4 1,6 4,6 3,0 5,-1 7,-4 9,-10 20,-14 33,-13 11,1 20,4 27,11 5,4 8,9 10,15 1,5 2,13 2,23z"/>
  <path id="10" class="fil13 str4" d="M703 392l-5 40c0,4 -1,10 -1,17 -1,9 -1,14 -1,15 0,4 2,6 5,6 2,0 6,-1 12,-4 5,-3 8,-5 8,-6 0,-1 -1,-3 -2,-6 -1,-2 -2,-3 -2,-5 1,-9 13,-13 35,-11 12,1 21,3 27,6 3,1 5,3 7,6 1,2 2,5 2,7 -1,4 -3,7 -7,8 0,0 -3,0 -7,1 -4,0 -9,2 -15,5 -6,4 -9,6 -10,8 0,1 3,7 10,18 6,10 12,19 17,27 4,5 7,9 9,11 2,2 5,5 8,7 6,4 9,8 9,12 -1,5 -3,8 -7,10 -4,2 -9,3 -16,3l-41 -4c-5,0 -9,-3 -12,-7l-18 -28c-5,-8 -8,-12 -9,-14 -1,-1 -2,-2 -3,-2 -1,0 -2,0 -2,2 -1,1 -1,4 -2,8 0,4 0,7 1,9 0,2 2,4 5,7 2,2 3,4 3,8 -1,6 -4,10 -11,12 -6,2 -17,2 -31,1 -17,-1 -28,-3 -33,-5 -2,-1 -5,-3 -7,-6 -1,-3 -2,-5 -2,-8 0,-3 2,-6 6,-8 3,-2 5,-3 6,-4 1,-1 2,-2 3,-5 3,-11 5,-29 7,-54l3 -28c1,-9 1,-15 0,-18 -1,-3 -3,-4 -7,-5 -7,-2 -10,-5 -10,-10 1,-3 2,-6 6,-8 3,-2 8,-4 15,-6 23,-7 40,-9 50,-8 5,0 7,2 7,6z"/>
  <path id="11" class="fil13 str4" d="M846 521c7,0 13,4 18,10 4,5 7,12 6,19 -1,8 -4,14 -10,19 -6,5 -12,7 -20,6 -7,0 -13,-3 -18,-9 -5,-6 -8,-12 -7,-20 1,-8 4,-14 9,-18 6,-6 13,-8 22,-7zm9 -120c8,1 14,4 19,10 6,8 9,18 8,31 -1,8 -4,18 -7,27 -4,10 -9,18 -15,26 -6,8 -11,12 -14,12 -4,-1 -8,-7 -13,-18 -4,-9 -7,-18 -9,-28 -2,-10 -2,-18 -1,-26 0,-10 3,-18 8,-24 6,-7 14,-11 24,-10z"/>
 </g>
</svg>
