<?xml version="1.0" encoding="utf-8"?>
<svg xmlns="http://www.w3.org/2000/svg" xml:space="preserve" width="900px" height="900px" version="1.1"
viewBox="0 0 900 500" xmlns:xlink="http://www.w3.org/1999/xlink">
 <defs>
  <style type="text/css">
   <![CDATA[
    .str1 {stroke:#1F1B20;stroke-width:9.37562}
    .str0 {stroke:#2B2A29;stroke-width:9.37562}
    .fil0 {fill:#E63C24}
    .fil1 {fill:#FCEB0A;fill-rule:nonzero}
   ]]>
  </style>
 </defs>
 <g id="Layer_x0020_1">
  <metadata id="CorelCorpID_0Corel-Layer"/>
  <polygon class="fil0 str0" points="153,57 210,102 280,40 326,121 466,43 467,45 533,146 645,66 739,150 806,97 776,187 833,182 744,271 771,391 670,394 650,484 613,359 482,449 445,339 342,456 319,352 257,400 268,344 200,432 195,329 137,369 108,302 44,319 159,217 82,134 172,118 "/>
  <path class="fil1 str1" d="M155 156l3 -5c-3,0 -6,0 -8,0 -2,1 -5,2 -8,2 -4,1 -6,2 -7,2 -2,-1 -3,-2 -5,-3 -1,-1 -1,-3 -1,-5 1,-4 2,-8 5,-11 5,-4 8,-6 13,-7 6,-2 13,-3 22,-4 9,0 18,0 27,1 10,1 19,2 26,4 9,2 15,5 21,9 6,3 11,7 15,13 5,5 7,11 10,17 2,6 2,13 2,20 -1,7 -2,14 -6,21 -4,8 -7,15 -13,22 -4,7 -10,12 -16,18 -6,5 -14,9 -24,12 -11,4 -20,5 -27,5 -3,-1 -6,-2 -9,-3 -2,-1 -2,-3 -2,-5 0,-2 1,-5 3,-7 2,-2 6,-5 11,-8 6,-2 10,-5 14,-8 5,-5 9,-10 12,-16 3,-5 4,-12 5,-21 1,-8 0,-15 -2,-20 -2,-6 -6,-11 -11,-15l-26 61 -4 10c-2,5 -5,13 -8,22 -7,18 -12,31 -17,38 -1,3 -5,6 -8,8 -4,4 -10,7 -18,10 -7,2 -13,3 -18,3 -4,-1 -6,-2 -8,-4 -1,-2 -2,-5 -2,-9 0,-4 2,-10 5,-16 2,-8 7,-21 15,-40l3 -8 4 -8 32 -75 0 0 0 0zm213 27c-7,6 -11,11 -16,15 -3,4 -6,9 -10,17 -3,5 -6,11 -7,18 -3,6 -3,12 -4,21 -1,13 -1,24 0,32 2,9 5,15 9,19 4,5 10,8 16,8 6,1 12,-1 17,-4 6,-4 12,-8 17,-15 4,-5 9,-11 12,-19 4,-7 6,-15 7,-23 1,-13 -2,-27 -11,-42 -2,-5 -4,-9 -4,-12 1,-4 3,-8 8,-11 6,-4 12,-8 18,-10 6,-4 12,-5 15,-5 2,0 5,1 7,2 1,2 4,3 5,5 3,3 4,9 6,17 1,9 1,18 0,28 -2,22 -7,42 -19,61 -10,17 -24,32 -41,41 -16,10 -34,14 -53,12 -9,-1 -20,-4 -30,-8 -11,-5 -18,-11 -24,-18 -10,-12 -15,-27 -13,-44 1,-11 4,-22 9,-33 5,-11 11,-21 19,-31 9,-12 17,-21 27,-29 10,-7 20,-14 30,-19 10,-4 19,-7 30,-8 10,-3 19,-3 27,-2 11,1 16,3 16,6 0,1 -1,3 -4,5 -5,4 -9,7 -12,9 -3,1 -8,2 -15,3 -8,2 -14,4 -17,5 -4,2 -8,5 -15,9l0 0 0 0zm196 88c-8,13 -17,27 -26,37 -11,13 -20,23 -27,29 -4,4 -9,7 -14,8 -6,3 -10,3 -14,3 -1,0 -2,0 -3,-1 -2,-2 -3,-2 -4,-4 -4,-5 -7,-19 -8,-41 -1,-21 -1,-48 2,-79 2,-25 6,-42 10,-49 2,-4 4,-6 8,-8 3,-3 7,-4 13,-6 5,-1 10,-3 15,-4 6,-1 10,-1 13,0 2,0 5,0 6,2 1,1 2,3 2,5 0,1 0,3 -1,4 -2,9 -5,21 -9,38 -2,10 -3,19 -5,25 0,6 -2,16 -3,27 -1,12 -3,23 -4,34l1 1c4,-6 10,-11 15,-18 2,-3 4,-6 6,-9 2,-1 4,-4 6,-8 5,-7 9,-14 14,-21 1,-3 3,-7 5,-11 17,-29 28,-47 35,-51 3,-3 8,-5 15,-6 7,-2 14,-3 20,-2 3,0 6,1 8,4 2,2 4,4 4,6 -1,3 -3,7 -6,15 -6,14 -11,29 -16,45 -5,18 -7,32 -8,46 -3,27 1,41 12,42 3,0 6,-2 9,-6 4,-5 7,-10 10,-17 3,-7 6,-15 7,-24 3,-9 5,-19 6,-29 0,-5 0,-12 1,-21 0,-2 -1,-4 -1,-6 1,-11 8,-20 21,-30 6,-5 10,-7 13,-7 7,0 8,13 6,38 -1,17 -5,34 -10,50 -6,19 -14,35 -24,47 -4,7 -11,13 -17,20 -7,6 -13,11 -19,15 -8,5 -16,6 -25,5 -15,-1 -27,-8 -34,-20 -5,-14 -7,-32 -5,-58l1 -10 0 0 -1 0zm160 46c-6,-1 -9,-4 -8,-11 0,-1 1,-3 2,-8 11,-33 21,-62 32,-86 4,-6 6,-10 9,-14 4,-2 10,-6 18,-8 7,-1 15,-2 21,-2 6,1 10,4 9,8 0,5 -9,23 -24,54 -16,33 -26,49 -28,52 -2,3 -5,5 -10,7 -3,3 -7,5 -11,6 -4,1 -8,2 -10,2l0 0 0 0zm-14 53c-4,-1 -7,-2 -10,-4 -1,-2 -2,-5 -2,-9 1,-6 4,-14 12,-23 1,0 2,-3 3,-3 4,-3 7,-4 12,-6 5,-2 9,-2 13,-2 3,0 6,2 9,4 2,1 3,3 2,6 0,3 -1,8 -4,12 -1,5 -3,9 -7,12 -1,2 -4,5 -7,7 -8,4 -15,6 -21,6l0 0z"/>
 </g>
</svg>
