<?xml version="1.0" encoding="UTF-8"?>
<!DOCTYPE svg PUBLIC "-//W3C//DTD SVG 1.1//EN" "http://www.w3.org/Graphics/SVG/1.1/DTD/svg11.dtd">
<!-- Creator: CorelDRAW X8 -->
<svg xmlns="http://www.w3.org/2000/svg" xml:space="preserve" width="900px" height="900px" version="1.1" style="shape-rendering:geometricPrecision; text-rendering:geometricPrecision; image-rendering:optimizeQuality; fill-rule:evenodd; clip-rule:evenodd"
viewBox="0 0 900 500"
 xmlns:xlink="http://www.w3.org/1999/xlink">
 <defs>
  <style type="text/css">
   <![CDATA[
    .str0 {stroke:#2B2A29;stroke-width:9.99924}
    .str1 {stroke:#1F1B20;stroke-width:9.99924;stroke-linejoin:round}
    .fil1 {fill:#40BFEE;fill-rule:nonzero}
    .fil0 {fill:#FFDC0A;fill-rule:nonzero}
   ]]>
  </style>
 </defs>
 <g id="Layer_x0020_1">
  <metadata id="CorelCorpID_0Corel-Layer"/>
  <path class="fil0 str0" d="M148 227c-115,-46 -28,-122 58,-106 0,-46 143,-62 201,-16 0,-60 173,-60 173,0 87,-46 230,16 173,61 87,15 57,91 0,91 87,15 57,91 0,91 57,46 -86,108 -173,46 -29,62 -201,62 -201,0 -58,46 -173,30 -144,-14 -87,14 -145,-46 -87,-77 -58,0 -86,-76 0,-76z"/>
  <path class="fil1 str1" d="M134 321l-1 1c-3,15 -9,29 -15,42 -7,16 -13,27 -18,35 -3,4 -7,8 -11,12 -4,3 -9,5 -13,6 -1,0 -2,0 -4,0 -1,-1 -3,-1 -4,-2 -6,-5 -12,-18 -18,-38 -7,-21 -13,-46 -19,-78 -5,-24 -6,-41 -4,-49 1,-4 3,-7 5,-10 3,-3 7,-6 12,-9 4,-3 8,-6 13,-8 5,-3 9,-4 12,-5 3,0 5,0 7,1 2,1 3,3 4,5 0,1 0,3 0,4 -1,10 0,23 1,38 1,11 1,20 2,27 1,6 2,15 4,27 2,11 4,22 5,33l0 1c4,-7 7,-14 10,-22 2,-3 3,-6 4,-9 1,-3 2,-6 4,-10 3,-8 5,-16 7,-24 2,-4 2,-7 3,-11 9,-34 14,-54 19,-60 3,-3 7,-5 14,-9 7,-3 13,-6 19,-7 3,0 5,0 8,1 3,1 4,3 5,6 0,3 0,7 -1,15 -3,15 -4,31 -4,49 0,17 2,32 4,45 5,27 13,40 23,38 4,-1 6,-4 9,-9 1,-5 3,-11 3,-18 1,-8 2,-16 2,-26 -1,-9 -2,-19 -4,-29 -1,-5 -1,-12 -3,-20 -1,-2 -1,-4 -2,-6 -2,-10 2,-22 11,-34 5,-6 8,-10 11,-10 7,-2 12,10 17,34 3,17 4,34 4,51 -2,20 -5,37 -11,52 -3,8 -7,16 -12,24 -5,8 -10,14 -15,19 -6,6 -13,10 -22,12 -16,3 -28,-1 -37,-12 -10,-10 -18,-28 -22,-53l-2 -10 0 0zm216 -130l0 -3c-1,-3 -1,-5 -2,-5 -2,1 -3,3 -5,7 -2,4 -3,9 -4,14 -3,12 -5,26 -7,40 -2,13 -2,27 -2,41 0,5 0,11 1,16l0 0c8,-10 13,-18 17,-23 4,-5 9,-11 16,-18 8,-7 15,-12 20,-13 4,-1 8,0 10,3 3,2 5,5 6,10 0,3 0,7 0,13 0,11 1,21 2,28 1,3 2,7 3,11 1,3 4,9 8,18 4,6 6,9 6,10 0,1 -1,3 -4,5 -9,9 -18,14 -26,16 -6,1 -13,-1 -18,-7 -6,-6 -10,-15 -12,-25 0,-4 -1,-9 -1,-16l-1 0c-11,16 -17,26 -21,32 -14,20 -26,30 -35,32 -3,1 -7,-1 -11,-6 -4,-6 -7,-13 -8,-22 -4,-18 -2,-44 4,-75 3,-13 6,-24 9,-36 4,-12 6,-22 10,-29 2,-6 5,-12 8,-17 3,-4 7,-9 10,-12 4,-4 7,-6 11,-8 4,-2 7,-3 11,-4 10,-2 19,0 27,4 8,5 11,13 13,23 2,7 1,14 -2,22 -1,8 -5,17 -11,25 -4,5 -8,10 -13,14 -5,4 -10,7 -13,7 -1,0 -2,0 -3,0 0,-1 -1,-2 -1,-3 0,-1 0,-4 2,-9 2,-6 3,-12 5,-21 1,-8 2,-15 2,-22 1,-7 0,-13 -1,-17zm173 69l-3 2c-6,3 -11,5 -13,5 -4,1 -6,0 -7,-2 0,0 1,-2 2,-5 4,-8 5,-17 4,-24 -1,-4 -3,-8 -5,-11 -2,-3 -4,-4 -5,-4 -2,0 -4,2 -6,6 -8,11 -13,23 -16,33 -4,11 -5,21 -3,29 1,5 3,8 5,11 3,3 6,4 10,4 2,-1 7,-5 14,-11 6,-7 12,-17 20,-28l3 -4 0 -1zm-3 35l0 0 -1 0c-7,11 -12,21 -18,29 -7,8 -13,15 -18,18 -6,4 -11,7 -17,8 -10,2 -19,0 -27,-6 -9,-5 -14,-13 -15,-24 -1,-7 -1,-15 1,-24 1,-10 4,-20 8,-30 8,-16 18,-30 31,-43 13,-13 27,-21 42,-23 11,-3 22,-2 31,2 9,3 13,9 14,16 1,5 0,11 -1,19 4,-1 7,-1 9,-1 1,1 2,4 3,8 0,-1 0,1 0,6 2,8 3,17 5,26 0,4 1,7 1,9 1,3 2,5 2,8 1,3 2,4 3,6 1,4 3,8 6,12 -5,7 -10,12 -15,16 -4,4 -10,6 -14,7 -15,3 -24,-8 -29,-33 0,-3 -1,-4 -1,-6l0 0zm215 -50l-31 47c-5,5 -8,9 -11,12 -3,2 -6,4 -10,4 -5,1 -10,0 -15,-4 -4,-3 -7,-7 -8,-14 -1,-4 -1,-8 -1,-13 0,-5 1,-12 3,-22 1,-1 1,-3 1,-4 1,-2 1,-3 1,-4l0 -1c-8,11 -15,23 -22,35 -6,11 -10,17 -13,23 -4,5 -7,9 -11,12 -3,3 -6,4 -8,5 -7,1 -12,-1 -17,-5 -3,-4 -6,-10 -8,-19 -2,-10 0,-28 5,-52 3,-23 7,-37 10,-45 5,-11 12,-18 20,-19 5,-1 10,-1 13,1 4,2 6,5 7,9 1,7 0,18 -3,33 -1,6 -2,13 -3,20l1 1c3,-5 7,-13 13,-24 11,-18 19,-31 25,-39 6,-10 14,-14 21,-16 3,0 6,0 10,2 3,2 6,4 9,7 2,3 3,7 3,11 1,4 0,15 -2,32 0,4 -1,7 -1,9 0,2 0,4 -1,5l1 1c1,-2 2,-3 3,-4 0,-2 1,-3 2,-4 1,-2 2,-3 3,-4 2,-3 7,-10 16,-23 5,-9 10,-15 13,-19 4,-3 7,-5 10,-6 6,-1 11,0 15,4 3,3 6,9 8,17 0,5 1,13 1,23 1,12 2,21 3,28 0,7 1,11 2,14 0,2 1,4 1,7 1,3 2,7 3,10 2,3 3,7 5,11 2,5 2,9 3,11 0,4 -1,7 -5,11 -4,3 -8,5 -13,6 -8,1 -16,-1 -24,-7 -3,-3 -6,-5 -8,-9 -2,-2 -4,-5 -6,-10 -1,-4 -3,-10 -4,-18 -1,-4 -2,-15 -4,-29l-1 -1 -1 4 0 0zm91 -18c-6,1 -10,-1 -11,-8 -1,-1 -1,-5 -1,-8 2,-36 5,-66 10,-92 1,-6 2,-11 5,-15 3,-5 7,-9 13,-13 7,-3 14,-6 21,-7 7,-1 10,1 11,5 1,4 -2,24 -9,58 -7,35 -12,54 -13,58 -2,3 -4,6 -7,9 -4,3 -6,6 -10,9 -3,2 -6,4 -9,4l0 0zm0 55c-4,0 -7,0 -10,-2 -3,-1 -4,-4 -5,-7 -1,-6 1,-15 5,-25 1,-1 2,-3 3,-4 2,-4 6,-7 10,-10 4,-2 8,-4 12,-5 3,0 6,0 9,1 2,1 4,3 4,6 1,3 1,8 0,13 -1,5 -2,9 -4,13 -1,3 -3,5 -5,8 -6,7 -13,11 -19,12l0 0z"/>
 </g>
</svg>
