<?xml version="1.0" encoding="UTF-8"?>
<!DOCTYPE svg PUBLIC "-//W3C//DTD SVG 1.1//EN" "http://www.w3.org/Graphics/SVG/1.1/DTD/svg11.dtd">
<!-- Creator: CorelDRAW X8 -->
<svg xmlns="http://www.w3.org/2000/svg" xml:space="preserve" width="900px" height="900px" version="1.1" style="shape-rendering:geometricPrecision; text-rendering:geometricPrecision; image-rendering:optimizeQuality; fill-rule:evenodd; clip-rule:evenodd"
viewBox="0 0 900 500"
 xmlns:xlink="http://www.w3.org/1999/xlink">
 <defs>
  <style type="text/css">
   <![CDATA[
    .str1 {stroke:#1F1B20;stroke-width:9.99924}
    .str0 {stroke:#2B2A29;stroke-width:9.99924}
    .fil0 {fill:#2AB8EB}
    .fil1 {fill:#FF1E00;fill-rule:nonzero}
   ]]>
  </style>
 </defs>
 <g id="Layer_x0020_1">
  <metadata id="CorelCorpID_0Corel-Layer"/>
  <path class="fil0 str0" d="M230 89l113 124 6 -96c0,2 0,4 1,4l41 96 0 -3 161 -191 -44 204 101 -95 -1 3 1 106 52 -121 -11 100 109 20 -129 24 100 171 -160 -133 -108 175 29 -163 -64 75c0,-3 0,-4 1,-6l13 -91 -149 174 56 -180 -128 70 48 -87 -127 -36 3 -1 138 -17 -52 -126 0 0z"/>
  <path class="fil1 str1" d="M258 233l10 -8c4,-4 8,-8 12,-12 4,-4 8,-7 11,-10 3,-2 5,-6 8,-8 1,-1 1,-2 2,-2 1,-1 1,-2 2,-3 -6,0 -13,1 -20,1 -9,2 -16,2 -21,2 -1,0 -2,0 -2,0 -1,0 -2,0 -2,0 -2,0 -2,0 -3,0 -7,-2 -10,-4 -9,-9 0,-3 2,-5 4,-9 3,-4 6,-7 10,-10 1,-1 2,-2 4,-3 1,0 4,0 7,0 1,1 3,1 4,1 1,0 4,1 8,1l13 1 11 1c1,0 2,0 3,0 0,0 2,1 4,1l0 0 2 0 2 0 3 0c8,2 14,2 17,4 4,0 6,2 7,3 1,2 1,3 1,4 0,2 -2,5 -7,9 -3,3 -8,8 -15,16 0,1 -3,4 -8,9l-6 7c-16,18 -28,32 -34,40 0,0 0,1 -1,1 0,1 -1,1 -1,2 9,1 16,1 20,1 9,0 16,0 23,-1 3,-1 5,-1 7,-1 3,1 5,3 4,6 0,3 -2,7 -5,12 -3,4 -6,8 -9,10 -4,2 -8,4 -13,5 -5,1 -11,3 -17,3 -7,0 -14,0 -21,-1 -9,-1 -17,-3 -25,-5 -6,-2 -12,-4 -15,-8 -4,-2 -5,-6 -5,-9 0,-3 2,-6 6,-11 4,-4 12,-11 25,-22 4,-4 7,-6 9,-8l0 0zm167 -12l-22 36 26 2 -4 -38zm-6 -26l-4 -12c2,-1 3,-2 4,-2 6,-1 12,-1 19,0 7,0 12,3 15,8 4,4 6,9 7,16 1,6 2,16 3,28 0,6 0,10 1,14 1,8 2,14 3,16 0,3 1,7 2,12 0,2 1,4 2,6 1,4 2,6 2,8 2,6 4,13 8,22 -6,3 -11,5 -15,6 -4,2 -8,2 -11,2 -4,-1 -7,-2 -9,-4 -3,-2 -5,-4 -6,-8 -2,-4 -4,-10 -5,-18 -1,-1 -1,-2 -1,-3 0,-1 -1,-3 -1,-4 -8,2 -14,3 -18,3 -2,0 -4,-1 -6,-1 -2,-1 -9,-1 -21,-3l-1 2c-4,7 -8,12 -12,16 -4,3 -8,6 -12,7 -4,1 -9,1 -15,1 -4,-1 -6,-2 -8,-2 -2,-2 -2,-3 -2,-4 0,-3 5,-8 13,-17 3,-3 6,-5 7,-7 -7,-2 -10,-5 -10,-8 0,-4 4,-8 10,-12 3,-3 5,-4 8,-5 2,0 6,0 12,1 6,-10 10,-15 12,-18 1,-2 4,-5 7,-9 2,-3 5,-8 9,-13 3,-4 8,-10 13,-18l0 0zm110 20l2 -4c-2,0 -4,0 -6,0 -1,0 -3,1 -5,1 -3,1 -5,1 -5,1 -2,0 -2,0 -3,-2 -1,0 -1,-2 -1,-3 0,-2 2,-5 4,-7 2,-2 5,-4 8,-5 5,-1 10,-2 16,-2 7,0 13,0 19,1 6,0 12,2 18,3 5,2 10,4 14,7 4,2 7,5 10,9 2,3 4,7 6,12 1,4 1,9 1,13 -1,5 -2,10 -5,14 -2,6 -5,10 -8,15 -4,5 -8,9 -12,12 -4,3 -10,6 -17,8 -7,3 -13,3 -18,3 -3,-1 -5,-2 -6,-2 -1,-2 -3,-2 -2,-4 0,-2 1,-3 3,-4 1,-2 4,-4 8,-6 3,-1 6,-3 9,-5 3,-3 7,-7 9,-11 2,-4 3,-8 4,-14 0,-5 0,-10 -2,-14 -1,-3 -4,-7 -7,-10l-19 41 -3 7c-1,4 -3,8 -6,16 -5,12 -9,20 -12,24 -2,2 -4,4 -6,6 -3,2 -7,4 -12,6 -5,1 -10,2 -13,2 -2,-1 -4,-2 -5,-3 -1,-1 -2,-3 -2,-6 1,-3 2,-7 4,-11 2,-6 6,-14 11,-27l3 -5 2 -6 24 -50 0 0zm94 87c-5,-1 -7,-3 -6,-7 0,-2 1,-4 2,-7 8,-22 16,-41 24,-57 1,-4 4,-8 6,-9 3,-3 7,-5 12,-6 5,-1 10,-1 15,-1 4,1 6,2 6,6 0,3 -6,15 -18,36 -12,22 -18,33 -20,35 -1,1 -4,3 -6,5 -3,2 -6,3 -8,4 -4,0 -6,1 -7,1l0 0zm-11 36c-3,-1 -5,-2 -6,-4 -2,-1 -2,-3 -2,-5 1,-4 4,-10 8,-16 2,-1 2,-2 3,-2 2,-2 5,-3 8,-4 3,-1 6,-1 9,-1 2,0 4,1 6,3 1,0 2,2 2,4 0,2 -2,5 -3,8 -1,3 -3,6 -5,8 -1,2 -3,3 -5,4 -6,4 -11,5 -15,5z"/>
 </g>
</svg>
