<?xml version="1.0" encoding="UTF-8"?>
<!DOCTYPE svg PUBLIC "-//W3C//DTD SVG 1.1//EN" "http://www.w3.org/Graphics/SVG/1.1/DTD/svg11.dtd">
<!-- Creator: CorelDRAW X8 -->
<svg xmlns="http://www.w3.org/2000/svg" xml:space="preserve" width="900px" height="900px" version="1.1" style="shape-rendering:geometricPrecision; text-rendering:geometricPrecision; image-rendering:optimizeQuality; fill-rule:evenodd; clip-rule:evenodd"
viewBox="0 0 900 900"
 xmlns:xlink="http://www.w3.org/1999/xlink">
 <defs>
  <style type="text/css">
   <![CDATA[
    .str1 {stroke:#001EFF;stroke-width:3.99997}
    .str0 {stroke:#0613C7;stroke-width:3.99997}
    .fil2 {fill:none;fill-rule:nonzero}
    .fil0 {fill:#FFF70D}
    .fil1 {fill:red;fill-rule:nonzero}
   ]]>
  </style>
 </defs>
 <g id="Layer_x0020_1">
  <metadata id="CorelCorpID_0Corel-Layer"/>
  <polygon class="fil0 str0" points="202,402 263,326 11,197 "/>
  <polygon class="fil0 str0" points="340,399 451,358 266,65 "/>
  <polygon class="fil0 str0" points="289,503 195,423 23,739 "/>
  <polygon class="fil0 str0" points="464,523 381,483 319,745 "/>
  <polygon class="fil0 str0" points="592,488 483,506 601,807 "/>
  <polygon class="fil0 str0" points="737,504 672,556 861,709 "/>
  <path class="fil1" d="M193 385l-56 96c-6,11 -10,18 -10,20 0,4 6,6 18,6 4,0 9,0 13,-1 5,-1 8,-3 10,-4 5,-3 9,-9 13,-18 2,-4 4,-6 5,-8 2,-1 4,-2 7,-2 6,0 10,2 13,5 3,4 4,9 4,15 0,14 -3,26 -10,36 -5,7 -10,10 -15,10 -1,0 -2,0 -5,0 -6,-1 -12,-2 -17,-2l-110 0c-5,0 -8,0 -9,0 -1,-1 -2,-1 -3,-2 -2,-2 -3,-4 -3,-7 0,-3 1,-6 4,-10l65 -111c2,-3 3,-6 3,-7 0,-5 -5,-7 -15,-7 -8,0 -14,1 -17,4 -4,2 -8,9 -13,18 -4,8 -8,11 -12,11 -5,0 -9,-2 -12,-6 -4,-4 -5,-9 -5,-14 0,-9 3,-19 10,-31 5,-9 10,-13 13,-13 0,0 2,0 3,1 5,1 16,2 34,2 7,0 25,-1 53,-2 24,-2 36,-2 36,-2 4,0 7,1 9,3 3,2 4,5 4,8 0,3 -2,6 -5,12z"/>
  <path id="1" class="fil1" d="M296 411c15,0 29,4 40,12 9,6 15,14 20,23 6,10 8,20 8,30 0,18 -8,34 -25,47 -16,12 -34,18 -55,18 -20,0 -37,-5 -49,-17 -12,-11 -19,-26 -19,-44 0,-20 8,-36 23,-49 15,-13 34,-20 57,-20zm-11 30c-3,0 -6,1 -9,4 -2,3 -3,6 -3,11 0,5 1,12 3,21 2,8 4,16 7,23 2,7 7,10 13,10 7,0 11,-5 11,-14 0,-7 -1,-15 -3,-24 -2,-9 -4,-17 -7,-22 -3,-6 -7,-9 -12,-9z"/>
  <path id="2" class="fil1" d="M444 420l0 74c0,6 1,10 2,13 1,3 3,5 6,7 3,2 4,4 5,5 1,1 2,3 2,5 0,11 -14,16 -42,16 -15,0 -27,-1 -35,-3 -3,-1 -6,-2 -7,-5 -2,-2 -3,-4 -3,-7 0,-2 0,-4 1,-5 1,-1 4,-3 7,-6 3,-2 5,-5 6,-10 1,-4 2,-11 2,-19 0,-3 -1,-8 -1,-16 0,-8 -1,-12 -1,-13 0,-4 -3,-7 -7,-8 -5,-3 -8,-6 -8,-11 0,-5 4,-9 10,-12 10,-3 20,-6 31,-9 11,-2 19,-4 25,-4 5,0 7,3 7,8zm-25 -55c7,0 13,1 17,4 5,3 7,6 7,11 0,6 -3,12 -10,15 -10,6 -23,9 -37,9 -6,0 -11,-1 -15,-3 -5,-3 -7,-7 -7,-13 0,-7 5,-13 15,-17 11,-4 21,-6 30,-6z"/>
  <path id="3" class="fil1" d="M620 458l2 45c0,3 1,6 2,8 0,1 3,4 7,9 2,1 2,3 2,5 0,6 -3,10 -10,12 -6,2 -18,3 -36,3 -11,0 -20,-1 -24,-3 -5,-2 -8,-5 -8,-10 0,-2 0,-3 1,-4 0,0 2,-2 5,-6 3,-3 5,-15 5,-35 0,-12 -1,-20 -4,-26 -2,-4 -6,-7 -12,-7 -6,0 -10,2 -12,6 -2,3 -3,10 -3,20l0 25c0,5 0,8 1,10 1,2 3,5 6,11 1,1 2,3 2,5 0,5 -4,9 -11,11 -7,2 -18,4 -32,4 -24,0 -36,-5 -36,-15 0,-2 1,-4 2,-5 0,-1 2,-2 5,-4 2,-2 3,-4 4,-6 0,-2 1,-7 1,-15 1,-10 1,-20 1,-30 0,-6 0,-10 -1,-12 -1,-2 -3,-4 -8,-6 -3,-3 -5,-6 -5,-9 0,-3 1,-6 4,-8 3,-2 9,-5 19,-8 8,-3 16,-6 23,-8 8,-2 13,-3 16,-3 2,0 4,1 6,3 2,2 3,4 3,7 0,0 0,1 0,3 -1,1 -1,1 -1,2 0,4 2,6 5,6 2,0 5,-2 7,-5 7,-10 18,-16 32,-16 10,0 19,3 27,9 5,4 9,8 11,14 2,5 4,13 4,23z"/>
  <path id="4" class="fil1" d="M776 405c2,0 4,1 5,3 2,3 3,5 3,9 0,3 -2,7 -4,12 -2,4 -4,7 -8,10 -1,2 -2,3 -2,4 0,0 0,1 0,3 0,2 0,4 0,5 0,10 -3,19 -10,25 -6,6 -14,11 -23,15 -10,3 -21,5 -32,5 -3,0 -6,0 -8,-1 -3,0 -4,0 -6,0 -4,0 -6,2 -6,6 0,3 1,6 4,7 3,2 7,3 12,3 3,0 8,-1 15,-2 14,-2 24,-3 31,-3 10,0 17,2 23,5 4,3 8,6 10,11 3,5 4,10 4,15 0,8 -3,17 -9,25 -8,9 -19,16 -33,21 -11,3 -24,5 -39,5 -19,0 -34,-3 -46,-9 -5,-2 -10,-6 -13,-10 -3,-5 -5,-9 -5,-14 0,-3 1,-6 3,-9 2,-3 4,-5 7,-6 2,-1 4,-2 4,-3 0,-1 -1,-3 -4,-4 -6,-6 -10,-12 -10,-18 0,-4 2,-8 5,-13 3,-4 8,-7 12,-10 2,-1 3,-2 3,-3 0,-1 -1,-3 -3,-5 -9,-8 -14,-17 -14,-28 0,-6 2,-11 5,-16 3,-6 8,-10 13,-14 14,-9 29,-13 45,-13 7,0 14,1 22,3 8,1 13,2 16,2 10,0 19,-4 28,-11 2,-2 3,-2 5,-2zm-69 26c-5,0 -8,2 -11,5 -2,3 -3,7 -3,13 0,9 1,16 4,22 3,5 6,8 11,8 4,0 8,-2 10,-5 3,-4 4,-8 4,-14 0,-9 -1,-16 -4,-21 -3,-5 -6,-8 -11,-8zm-28 115c-2,0 -3,2 -3,4 0,5 2,9 8,12 5,3 12,5 21,5 8,0 15,-1 19,-3 5,-3 7,-6 7,-10 0,-2 0,-4 -2,-5 -2,-2 -4,-2 -7,-2 -1,0 -3,0 -6,0 -4,1 -10,1 -15,1 -5,0 -9,0 -13,0 -3,-1 -5,-1 -7,-1 -1,0 -2,-1 -2,-1z"/>
  <path id="5" class="fil1" d="M827 486c7,0 14,3 19,9 5,5 8,11 8,19 0,7 -3,14 -8,19 -6,6 -12,8 -20,8 -7,0 -14,-2 -19,-7 -5,-6 -8,-12 -8,-20 0,-8 2,-14 7,-19 6,-6 13,-9 21,-9zm-1 -120c8,0 14,3 19,9 7,7 11,17 11,30 0,8 -2,18 -5,28 -3,10 -7,18 -12,26 -5,9 -10,13 -13,13 -4,0 -8,-5 -15,-16 -4,-9 -8,-18 -10,-27 -3,-10 -5,-18 -5,-26 0,-10 3,-18 7,-24 5,-9 13,-13 23,-13z"/>
  <path id="6" class="fil2 str1" d="M193 385l-56 96c-6,11 -10,18 -10,20 0,4 6,6 18,6 4,0 9,0 13,-1 5,-1 8,-3 10,-4 5,-3 9,-9 13,-18 2,-4 4,-6 5,-8 2,-1 4,-2 7,-2 6,0 10,2 13,5 3,4 4,9 4,15 0,14 -3,26 -10,36 -5,7 -10,10 -15,10 -1,0 -2,0 -5,0 -6,-1 -12,-2 -17,-2l-110 0c-5,0 -8,0 -9,0 -1,-1 -2,-1 -3,-2 -2,-2 -3,-4 -3,-7 0,-3 1,-6 4,-10l65 -111c2,-3 3,-6 3,-7 0,-5 -5,-7 -15,-7 -8,0 -14,1 -17,4 -4,2 -8,9 -13,18 -4,8 -8,11 -12,11 -5,0 -9,-2 -12,-6 -4,-4 -5,-9 -5,-14 0,-9 3,-19 10,-31 5,-9 10,-13 13,-13 0,0 2,0 3,1 5,1 16,2 34,2 7,0 25,-1 53,-2 24,-2 36,-2 36,-2 4,0 7,1 9,3 3,2 4,5 4,8 0,3 -2,6 -5,12z"/>
  <path id="7" class="fil2 str1" d="M296 411c15,0 29,4 40,12 9,6 15,14 20,23 6,10 8,20 8,30 0,18 -8,34 -25,47 -16,12 -34,18 -55,18 -20,0 -37,-5 -49,-17 -12,-11 -19,-26 -19,-44 0,-20 8,-36 23,-49 15,-13 34,-20 57,-20zm-11 30c-3,0 -6,1 -9,4 -2,3 -3,6 -3,11 0,5 1,12 3,21 2,8 4,16 7,23 2,7 7,10 13,10 7,0 11,-5 11,-14 0,-7 -1,-15 -3,-24 -2,-9 -4,-17 -7,-22 -3,-6 -7,-9 -12,-9z"/>
  <path id="8" class="fil2 str1" d="M444 420l0 74c0,6 1,10 2,13 1,3 3,5 6,7 3,2 4,4 5,5 1,1 2,3 2,5 0,11 -14,16 -42,16 -15,0 -27,-1 -35,-3 -3,-1 -6,-2 -7,-5 -2,-2 -3,-4 -3,-7 0,-2 0,-4 1,-5 1,-1 4,-3 7,-6 3,-2 5,-5 6,-10 1,-4 2,-11 2,-19 0,-3 -1,-8 -1,-16 0,-8 -1,-12 -1,-13 0,-4 -3,-7 -7,-8 -5,-3 -8,-6 -8,-11 0,-5 4,-9 10,-12 10,-3 20,-6 31,-9 11,-2 19,-4 25,-4 5,0 7,3 7,8zm-25 -55c7,0 13,1 17,4 5,3 7,6 7,11 0,6 -3,12 -10,15 -10,6 -23,9 -37,9 -6,0 -11,-1 -15,-3 -5,-3 -7,-7 -7,-13 0,-7 5,-13 15,-17 11,-4 21,-6 30,-6z"/>
  <path id="9" class="fil2 str1" d="M620 458l2 45c0,3 1,6 2,8 0,1 3,4 7,9 2,1 2,3 2,5 0,6 -3,10 -10,12 -6,2 -18,3 -36,3 -11,0 -20,-1 -24,-3 -5,-2 -8,-5 -8,-10 0,-2 0,-3 1,-4 0,0 2,-2 5,-6 3,-3 5,-15 5,-35 0,-12 -1,-20 -4,-26 -2,-4 -6,-7 -12,-7 -6,0 -10,2 -12,6 -2,3 -3,10 -3,20l0 25c0,5 0,8 1,10 1,2 3,5 6,11 1,1 2,3 2,5 0,5 -4,9 -11,11 -7,2 -18,4 -32,4 -24,0 -36,-5 -36,-15 0,-2 1,-4 2,-5 0,-1 2,-2 5,-4 2,-2 3,-4 4,-6 0,-2 1,-7 1,-15 1,-10 1,-20 1,-30 0,-6 0,-10 -1,-12 -1,-2 -3,-4 -8,-6 -3,-3 -5,-6 -5,-9 0,-3 1,-6 4,-8 3,-2 9,-5 19,-8 8,-3 16,-6 23,-8 8,-2 13,-3 16,-3 2,0 4,1 6,3 2,2 3,4 3,7 0,0 0,1 0,3 -1,1 -1,1 -1,2 0,4 2,6 5,6 2,0 5,-2 7,-5 7,-10 18,-16 32,-16 10,0 19,3 27,9 5,4 9,8 11,14 2,5 4,13 4,23z"/>
  <path id="10" class="fil2 str1" d="M776 405c2,0 4,1 5,3 2,3 3,5 3,9 0,3 -2,7 -4,12 -2,4 -4,7 -8,10 -1,2 -2,3 -2,4 0,0 0,1 0,3 0,2 0,4 0,5 0,10 -3,19 -10,25 -6,6 -14,11 -23,15 -10,3 -21,5 -32,5 -3,0 -6,0 -8,-1 -3,0 -4,0 -6,0 -4,0 -6,2 -6,6 0,3 1,6 4,7 3,2 7,3 12,3 3,0 8,-1 15,-2 14,-2 24,-3 31,-3 10,0 17,2 23,5 4,3 8,6 10,11 3,5 4,10 4,15 0,8 -3,17 -9,25 -8,9 -19,16 -33,21 -11,3 -24,5 -39,5 -19,0 -34,-3 -46,-9 -5,-2 -10,-6 -13,-10 -3,-5 -5,-9 -5,-14 0,-3 1,-6 3,-9 2,-3 4,-5 7,-6 2,-1 4,-2 4,-3 0,-1 -1,-3 -4,-4 -6,-6 -10,-12 -10,-18 0,-4 2,-8 5,-13 3,-4 8,-7 12,-10 2,-1 3,-2 3,-3 0,-1 -1,-3 -3,-5 -9,-8 -14,-17 -14,-28 0,-6 2,-11 5,-16 3,-6 8,-10 13,-14 14,-9 29,-13 45,-13 7,0 14,1 22,3 8,1 13,2 16,2 10,0 19,-4 28,-11 2,-2 3,-2 5,-2zm-69 26c-5,0 -8,2 -11,5 -2,3 -3,7 -3,13 0,9 1,16 4,22 3,5 6,8 11,8 4,0 8,-2 10,-5 3,-4 4,-8 4,-14 0,-9 -1,-16 -4,-21 -3,-5 -6,-8 -11,-8zm-28 115c-2,0 -3,2 -3,4 0,5 2,9 8,12 5,3 12,5 21,5 8,0 15,-1 19,-3 5,-3 7,-6 7,-10 0,-2 0,-4 -2,-5 -2,-2 -4,-2 -7,-2 -1,0 -3,0 -6,0 -4,1 -10,1 -15,1 -5,0 -9,0 -13,0 -3,-1 -5,-1 -7,-1 -1,0 -2,-1 -2,-1z"/>
  <path id="11" class="fil2 str1" d="M827 486c7,0 14,3 19,9 5,5 8,11 8,19 0,7 -3,14 -8,19 -6,6 -12,8 -20,8 -7,0 -14,-2 -19,-7 -5,-6 -8,-12 -8,-20 0,-8 2,-14 7,-19 6,-6 13,-9 21,-9zm-1 -120c8,0 14,3 19,9 7,7 11,17 11,30 0,8 -2,18 -5,28 -3,10 -7,18 -12,26 -5,9 -10,13 -13,13 -4,0 -8,-5 -15,-16 -4,-9 -8,-18 -10,-27 -3,-10 -5,-18 -5,-26 0,-10 3,-18 7,-24 5,-9 13,-13 23,-13z"/>
  <polygon class="fil0 str0" points="499,360 598,389 621,91 "/>
  <polygon class="fil0 str0" points="697,360 768,403 847,173 "/>
 </g>
</svg>
